<?xml version="1.0" encoding="utf-8"?>
<!-- Generator: Adobe Illustrator 21.0.0, SVG Export Plug-In . SVG Version: 6.00 Build 0)  -->
<svg version="1.1" id="pmb" xmlns="http://www.w3.org/2000/svg" xmlns:xlink="http://www.w3.org/1999/xlink" fill="#fff"  viewBox="0 0 298.5 107" style="enable-background:new 0 0 298.5 107;" xml:space="preserve">
<path class="st0" d="M287,51V38h-65v-8h65h8v8v13H287z M283,58h-62v-8h62V58z M208,24h8v25h-8V24z M247,79h-25v-8h25V61
	h8v10h27v8h-27v15h33l4,11h-37h-8h-60h-8h-44l0,0h-8l0,0V94v-8h8v8h44V75h-35v-8h35h8v8v19h60V79z M139,55.3L167,36h-24v-8h35h0.6
	h4.4v8l-44,30.3V55.3z M135,51c-3.3,0-6-2.7-6-6s2.7-6,6-6s6,2.7,6,6S138.3,51,135,51z M106,89H53v18h-8V89H21v10v8h-8H8H0v-8V89v-8
	v-3h13V46H0v-8h13V16h8v22h12v8H21v32h24V67H35v-8h10V46H35v-8h10V18h8v20v8v13v8v11h53l7-4.8v11L106,89L106,89z M13,89H8v10h5V89z
	 M292,105l-21-15.3l6.5-8.9l21,15.3L292,105z M251,29c-3.9,0-7-3.1-7-7s3.1-7,7-7c3.9,0,7,3.1,7,7S254.9,29,251,29z M250,17
	c-1.7,0-3,1.3-3,3c0,1.7,1.3,3,3,3c1.7,0,3-1.3,3-3C253,18.3,251.7,17,250,17z M141,24.7L112,49l-5.1-6.1L135.3,19H125l4-4h12h4v4v6
	l-4,4V24.7z M72,59h16v8H72v40h-8V67v-8V46v-8V18h-7.9L68,0l12,18h-8v20h20v8H72V59z M135,82h-8v-7.5l-10,6.9v-11L135,58V82z"/>
</svg>