<?xml version="1.0" encoding="utf-8"?>
<!-- Generator: Adobe Illustrator 21.0.0, SVG Export Plug-In . SVG Version: 6.00 Build 0)  -->
<svg version="1.1" id="易赞科技" xmlns="http://www.w3.org/2000/svg" xmlns:xlink="http://www.w3.org/1999/xlink" viewBox="0 0 1137.8 311.9" fill="#fff" style="enable-background:new 0 0 1137.8 311.9;" xml:space="preserve">
<path d="M260,155.9l-67.3-67.3V36.7L312,156L156,312L0,156L156,0v51.9l-104,104l19.5,19.5l88.7-88.8l65.7,65.8
	l-66.5,66.5L110,169.4l-22.3,22.3l68.2,68.2L260,155.9z M151.7,194.2l41-41l-33.2-33.2l-41,41L151.7,194.2z M407.5,137.5h125v61.8
	l-29.1,20h-24.8v-20.6h21.5v-39.6h-110l-4.3,5.5h-34.9l28-34.3h34.2L407.5,137.5z M361.1,128.3V41.6h171l0.2,67l-31.1,19.7H361.1z
	 M363.6,219.6l38.2-57.1h34.4l-37.1,57.1H363.6z M393.8,94.3v13.7h105.5l0.1-46.2H393.8v13.5h102.3l-8.9,19H393.8z M415.7,219.4
	l36.3-57.4h34.5l-35.9,57.4H415.7z M632.9,164.3h29.7l0.1,10.2l78.3,44.4h-52.9l-39.9-22.1l-47.4,23.7l-50.6,0.1l82.6-45.2
	L632.9,164.3z M552.1,129.3l13.4-29.1h27.1l-12.9,29.1H552.1z M586.4,42.2h29.8v9.5h25.1l-7.6,17.6h-17.5v11.6h23.7l-6.8,17h-8.3
	v14.4h15l-5.9,16.7h-37.5V97.9H555v-17h31.4V69.3h-8.3l-1.1,5.7h-22.9l6.2-31.6h23l-2,8.4h5.1V42.2z M559.6,136.9h172.8v44.9
	l-29.5,12.9v-37.3h-113v29.2L559.6,197V136.9z M684.6,40h29.8v9.4h25l-7.5,17.6h-17.5v11.6h23.7l-6.8,17h-7.9v17h14.7l-5.9,16.8
	h-37.6V95.5h-41.5v-17h31.4V66.9H672l-1.1,5.8h-25.2l6.1-31.6h25.4l-2,8.3h9.4V40z M648.7,128.3l13.4-29.1h27.1l-12.9,29.1H648.7z
	 M756.1,210.5l7.3-97.6h23.7l-6.6,97.6H756.1z M815.7,102.8v110.8l-25.9,9.3V102.8h-33V81.2h33V66.5l-31.3,3V46.4l89.3-8.2L842,60.9
	l-26.3,3.3v17h32l-9.9,21.7H815.7z M841.5,112.9l6.3,97.6h-23.2l-6-97.6H841.5z M898.5,40.1h27v130.8l13.3-0.8l-7.6,23l-5.7,0.5
	v20.6l-27,11.1v-30.7l-48.8,3.5v-22.8l48.8-3.3V40.1z M872.1,54.3c2.7,0.1,5.4,0.8,8.2,2.3c2.8,1.5,5,3.5,6.5,6.2
	c1.5,2.7,2.3,5.6,2.3,8.7c0,3.2-0.7,6-2.2,8.5c-1.6,2.6-3.7,4.7-6.4,6.3c-2.7,1.6-5.5,2.3-8.4,2.3c-3.1,0.1-5.9-0.7-8.6-2.2
	c-2.7-1.6-4.8-3.7-6.3-6.3c-1.5-2.7-2.3-5.5-2.3-8.5c0-3,0.8-5.9,2.4-8.6c1.6-2.8,3.7-4.9,6.5-6.4C866.6,55,869.3,54.3,872.1,54.3z
	 M872.1,112.7c2.8,0.1,5.6,0.8,8.3,2.2c2.7,1.4,4.9,3.5,6.4,6.3c1.5,2.7,2.3,5.6,2.3,8.7c0,3.1-0.7,5.9-2.2,8.5
	c-1.6,2.7-3.7,4.9-6.3,6.3c-2.7,1.5-5.5,2.2-8.5,2.2c-3.1,0.1-6-0.7-8.6-2.2c-2.6-1.5-4.7-3.6-6.3-6.3c-1.6-2.7-2.4-5.6-2.3-8.6
	c0-2.9,0.8-5.8,2.4-8.6c1.6-2.8,3.7-4.9,6.4-6.3C866.4,113.4,869.2,112.7,872.1,112.7z M1016.5,96.4h17.3l-17.3,31.1v70.3l-27,23.6
	h-27.4v-21.8h23.1V171h-30l30-52.1V78.5h-25.6V56.3h25.6V40.1h31.3v16.2h15.5l-10.4,22.3h-5.2V96.4z M1064.9,90.4V75.8H1036V53.9
	h28.9V39.4h32.7v14.6h37L1124,75.8h-26.4v14.6h33.9v22.4l-32.4,52.5l38.7,54.6h-38.2l-18.2-26.5l-16.1,26h-37.6l34.4-54.1
	l-27.5-39.9h36.6l8.6,12.2l15.8-24.8H1036V90.4H1064.9z M375.1,269.4v14.3c0,0.8,0.1,1.4,0.4,1.7c0.3,0.3,0.8,0.6,1.5,0.8v0.9h-8.3
	v-0.9c0.7-0.2,1.2-0.5,1.5-0.8c0.3-0.3,0.4-0.9,0.4-1.7v-14.3l-12.9-16.9c-1.4-1.8-2.4-3-2.9-3.5c-0.5-0.5-1.2-0.8-2-0.9v-0.9h10.2
	v0.9c-0.9,0.2-1.4,0.6-1.4,1.1c0,0.6,0.5,1.6,1.4,2.8l10.1,13.8l10.1-14.3c0.9-1.2,1.3-2,1.3-2.5c0-0.5-0.4-0.8-1.3-1.1v-0.9h9.4
	v0.9c-1,0.2-1.8,0.6-2.5,1.3c-1.4,1.5-2.3,2.5-2.7,3.1L375.1,269.4z M405.3,283.7v-33.1c0-0.8-0.1-1.4-0.4-1.7s-0.8-0.6-1.5-0.8
	v-0.9h8.3v0.9c-0.7,0.2-1.2,0.5-1.5,0.8s-0.4,0.9-0.4,1.7v33.1c0,0.8,0.1,1.4,0.4,1.7s0.7,0.6,1.5,0.8v0.9h-8.3v-0.9
	c0.8-0.2,1.3-0.5,1.5-0.8S405.3,284.5,405.3,283.7z M460.1,247.2v0.8l-27.5,35.4h24.2c0.8,0,1.4-0.1,1.7-0.4
	c0.3-0.3,0.6-0.8,0.8-1.5h0.9v7.6h-0.9c-0.2-0.7-0.4-1.2-0.8-1.5s-0.9-0.4-1.7-0.4h-32.1v-0.8l27.6-35.3h-23.8
	c-0.8,0-1.4,0.1-1.7,0.4c-0.3,0.3-0.6,0.8-0.8,1.5H425v-7.6h0.9c0.2,0.8,0.4,1.3,0.8,1.5s0.9,0.4,1.7,0.4H460.1z M501.6,275.9h-21.4
	l-3.5,7.6c-0.3,0.7-0.5,1.2-0.5,1.5c0,0.6,0.6,1,1.7,1.2v0.9H469v-0.9c0.8-0.1,1.4-0.4,1.8-0.9c0.4-0.4,1-1.4,1.7-2.9l14.6-31.6
	c0.4-0.8,0.5-1.3,0.5-1.6c0-0.5-0.5-0.9-1.4-1.1v-0.9h9.7v0.9c-1,0.3-1.4,0.7-1.4,1.2c0,0.2,0.2,0.7,0.5,1.5l14,30.5
	c1,2.2,1.7,3.6,2.1,4c0.3,0.4,1.1,0.7,2.2,1v0.9h-9.5v-0.9c1.1-0.2,1.7-0.6,1.7-1.3c0-0.3-0.2-0.9-0.6-1.8L501.6,275.9z
	 M499.9,272.1l-9-19.8l-9,19.8H499.9z M530.4,252.2v31.5c0,0.8,0.1,1.4,0.4,1.7c0.3,0.3,0.8,0.6,1.5,0.8v0.9h-7.9v-0.9
	c0.8-0.2,1.3-0.5,1.5-0.8c0.2-0.3,0.4-0.9,0.4-1.7v-33.1c0-0.8-0.1-1.4-0.4-1.7c-0.3-0.3-0.8-0.6-1.5-0.8v-0.9h11.5v0.9
	c-0.9,0.3-1.4,0.8-1.4,1.3c0,0.4,0.5,1.1,1.4,2.2l24.1,28.2v-29.2c0-0.8-0.1-1.4-0.4-1.7c-0.3-0.3-0.8-0.6-1.5-0.8v-0.9h7.9v0.9
	c-0.7,0.2-1.2,0.4-1.5,0.8c-0.3,0.3-0.4,0.9-0.4,1.7v33.1c0,0.8,0.1,1.4,0.4,1.7c0.3,0.3,0.8,0.6,1.5,0.8v0.9h-9.2v-0.9
	c0.9-0.2,1.3-0.6,1.3-1.2c0-0.4-0.4-1.1-1.2-2.1L530.4,252.2z M621.4,251v32.7c0,0.8,0.1,1.4,0.4,1.7c0.3,0.3,0.8,0.6,1.5,0.8v0.9
	h-8.3v-0.9c0.7-0.2,1.2-0.5,1.5-0.8c0.3-0.3,0.4-0.9,0.4-1.7V251h-13.5c-0.8,0-1.4,0.1-1.7,0.4c-0.3,0.2-0.6,0.7-0.8,1.5h-0.9v-7.6
	h0.9c0.2,0.8,0.4,1.3,0.8,1.5c0.3,0.3,0.9,0.4,1.7,0.4h31.7c0.8,0,1.4-0.1,1.7-0.4c0.3-0.3,0.6-0.8,0.8-1.5h0.9v7.6h-0.9
	c-0.2-0.8-0.4-1.3-0.8-1.5c-0.3-0.2-0.9-0.4-1.7-0.4H621.4z M656.7,268.5v14.9h25.6c0.8,0,1.4-0.1,1.7-0.4s0.6-0.8,0.8-1.5h0.9v7.6
	h-0.9c-0.2-0.7-0.5-1.2-0.8-1.5c-0.3-0.3-0.9-0.4-1.7-0.4h-32.1v-0.9c0.8-0.2,1.3-0.5,1.5-0.8s0.4-0.9,0.4-1.7v-33.1
	c0-0.8-0.1-1.4-0.4-1.7s-0.8-0.6-1.5-0.8v-0.9H682c0.8,0,1.4-0.1,1.7-0.4s0.6-0.8,0.8-1.5h0.9v7.6h-0.9c-0.2-0.7-0.4-1.2-0.8-1.5
	s-0.9-0.4-1.7-0.4h-25.3v13.7h16.6c0.8,0,1.4-0.1,1.7-0.4s0.6-0.8,0.8-1.5h0.9v7.6h-0.9c-0.2-0.7-0.4-1.2-0.8-1.5s-0.9-0.4-1.7-0.4
	H656.7z M742.5,250.6l-4.3,7.2l-0.8-0.5c0.2-0.6,0.3-1,0.3-1.4c0-0.8-1.3-1.8-3.8-3c-3.4-1.7-7.2-2.5-11.3-2.5
	c-5.5,0-9.9,1.5-13.3,4.5c-3.5,3.1-5.2,7.1-5.2,12c0,4.9,1.8,8.9,5.4,12.1c3.5,3.1,7.8,4.7,12.9,4.7c5,0,9.4-1.5,13.2-4.4
	c1.7-1.3,2.6-2.2,2.6-2.8c0-0.3-0.2-0.7-0.5-1.3l0.7-0.6l5.2,6.3l-0.7,0.6c-0.5-0.5-1-0.7-1.3-0.7c-0.2,0-0.6,0.2-1.1,0.6
	c-1.8,1.4-3.3,2.4-4.5,3c-1.2,0.7-2.5,1.2-3.9,1.7c-2.9,1-6.1,1.5-9.6,1.5c-6.7,0-12.2-1.9-16.4-5.6c-4.4-3.9-6.7-8.9-6.7-15
	c0-4.8,1.4-9,4.2-12.5c4.3-5.5,10.8-8.3,19.5-8.3c5.7,0,11.3,1.5,16.6,4.5c0.4,0.2,0.6,0.3,0.7,0.3c0.3,0,0.7-0.4,1.4-1.1
	L742.5,250.6z M791.9,268.5h-27.4v15.2c0,0.8,0.1,1.4,0.4,1.7s0.7,0.6,1.5,0.8v0.9h-8.3v-0.9c0.8-0.2,1.3-0.5,1.5-0.8
	s0.4-0.9,0.4-1.7v-33.1c0-0.8-0.1-1.4-0.4-1.7s-0.8-0.6-1.5-0.8v-0.9h8.3v0.9c-0.7,0.2-1.2,0.5-1.5,0.8s-0.4,0.9-0.4,1.7v14.1h27.4
	v-14.1c0-0.8-0.1-1.4-0.4-1.7s-0.8-0.6-1.5-0.8v-0.9h8.3v0.9c-0.7,0.2-1.2,0.5-1.5,0.8s-0.4,0.9-0.4,1.7v33.1c0,0.8,0.1,1.4,0.4,1.7
	s0.8,0.6,1.5,0.8v0.9h-8.3v-0.9c0.7-0.2,1.2-0.5,1.5-0.8s0.4-0.9,0.4-1.7V268.5z M820.2,252.2v31.5c0,0.8,0.1,1.4,0.4,1.7
	s0.8,0.6,1.5,0.8v0.9h-7.9v-0.9c0.8-0.2,1.3-0.5,1.5-0.8s0.4-0.9,0.4-1.7v-33.1c0-0.8-0.1-1.4-0.4-1.7s-0.8-0.6-1.5-0.8v-0.9h11.5
	v0.9c-0.9,0.3-1.4,0.8-1.4,1.3c0,0.4,0.5,1.1,1.4,2.2l24.1,28.2v-29.2c0-0.8-0.1-1.4-0.4-1.7s-0.8-0.6-1.5-0.8v-0.9h7.9v0.9
	c-0.7,0.2-1.2,0.4-1.5,0.8s-0.4,0.9-0.4,1.7v33.1c0,0.8,0.1,1.4,0.4,1.7s0.8,0.6,1.5,0.8v0.9h-9.2v-0.9c0.9-0.2,1.3-0.6,1.3-1.2
	c0-0.4-0.4-1.1-1.2-2.1L820.2,252.2z M894.3,246.5c7,0,12.7,1.8,17.1,5.5c2.4,2.1,4.2,4.6,5.4,7.5c1,2.4,1.5,5.1,1.5,7.9
	c0,3.8-1.1,7.4-3.3,10.7c-2.4,3.7-5.7,6.3-9.9,7.9c-3.2,1.2-6.7,1.8-10.8,1.8c-7,0-12.7-1.8-17-5.5c-2.4-2.1-4.2-4.6-5.4-7.5
	c-1-2.4-1.5-5-1.5-7.6c0-4,1.1-7.6,3.2-11c2.3-3.6,5.7-6.3,10-7.9C886.6,247.1,890.2,246.5,894.3,246.5z M894.3,250.5
	c-6,0-10.7,1.7-14.2,5c-3.2,3.1-4.8,7-4.8,11.6c0,4.7,1.6,8.6,4.8,11.7c3.5,3.4,8.2,5,14.3,5c6.1,0,10.9-1.7,14.4-5
	c3.2-3.1,4.8-6.9,4.8-11.4c0-4.9-1.6-8.9-4.8-11.9c-1.9-1.8-4-3.1-6.2-3.8C900.1,250.9,897.4,250.5,894.3,250.5z M939.5,283.3H965
	c0.8,0,1.4-0.1,1.7-0.4s0.6-0.8,0.8-1.5h0.9v7.6h-0.9c-0.2-0.7-0.4-1.2-0.8-1.5s-0.9-0.4-1.7-0.4h-32v-0.9c0.8-0.2,1.3-0.5,1.5-0.8
	s0.4-0.9,0.4-1.7v-33.1c0-0.8-0.1-1.4-0.4-1.7s-0.8-0.6-1.5-0.8v-0.9h8.3v0.9c-0.7,0.2-1.2,0.5-1.5,0.8s-0.4,0.9-0.4,1.7V283.3z
	 M1003.4,246.5c7,0,12.7,1.8,17.1,5.5c2.4,2.1,4.2,4.6,5.4,7.5c1,2.4,1.5,5.1,1.5,7.9c0,3.8-1.1,7.4-3.3,10.7
	c-2.4,3.7-5.7,6.3-9.9,7.9c-3.2,1.2-6.7,1.8-10.8,1.8c-7,0-12.7-1.8-17-5.5c-2.4-2.1-4.2-4.6-5.4-7.5c-1-2.4-1.5-5-1.5-7.6
	c0-4,1.1-7.6,3.2-11c2.3-3.6,5.7-6.3,10-7.9C995.8,247.1,999.3,246.5,1003.4,246.5z M1003.4,250.5c-6,0-10.7,1.7-14.2,5
	c-3.2,3.1-4.8,7-4.8,11.6c0,4.7,1.6,8.6,4.8,11.7c3.5,3.4,8.2,5,14.3,5c6.1,0,10.9-1.7,14.4-5c3.2-3.1,4.8-6.9,4.8-11.4
	c0-4.9-1.6-8.9-4.8-11.9c-1.9-1.8-4-3.1-6.2-3.8C1009.3,250.9,1006.5,250.5,1003.4,250.5z M1084.3,251l-4.5,7.1l-0.8-0.5
	c0.4-0.6,0.5-1,0.5-1.3c0-0.6-1-1.5-3.1-2.6c-4-2.2-8.1-3.3-12.4-3.3c-4.9,0-9,1.4-12.4,4.1c-3.8,3.1-5.8,7.3-5.8,12.6
	c0,5.2,1.8,9.3,5.5,12.4c3.4,2.8,7.7,4.2,12.9,4.2c2.8,0,5.4-0.4,7.9-1.3s4.6-2.1,6.3-3.6v-7.4h-9.5c-0.8,0-1.4,0.1-1.7,0.4
	s-0.6,0.8-0.8,1.5h-0.9v-7.6h0.9c0.2,0.7,0.4,1.2,0.8,1.5s0.9,0.4,1.7,0.4h15.7v0.9c-0.7,0.2-1.2,0.5-1.5,0.8s-0.4,0.9-0.4,1.7v5.2
	c0,0.8,0.1,1.4,0.4,1.7s0.8,0.6,1.5,0.8v0.8c-2.2,2-4.3,3.5-6.2,4.6c-4.2,2.4-9.1,3.6-14.5,3.6c-6.7,0-12.1-1.8-16.2-5.4
	c-2-1.8-3.6-3.9-4.8-6.4c-1.3-2.8-2-5.8-2-9c0-4.5,1.3-8.5,4-12c2.4-3.2,5.7-5.6,9.8-7.1c2.9-1,6-1.6,9.4-1.6c2.9,0,5.6,0.4,8.1,1.1
	s5.2,1.9,8.1,3.5c0.8,0.5,1.4,0.7,1.6,0.7c0.3,0,0.8-0.4,1.4-1.2L1084.3,251z M1117,269.4v14.3c0,0.8,0.1,1.4,0.4,1.7
	c0.3,0.3,0.8,0.6,1.5,0.8v0.9h-8.3v-0.9c0.7-0.2,1.2-0.5,1.5-0.8c0.3-0.3,0.4-0.9,0.4-1.7v-14.3l-12.9-16.9c-1.4-1.8-2.4-3-2.9-3.5
	c-0.5-0.5-1.2-0.8-2-0.9v-0.9h10.2v0.9c-0.9,0.2-1.4,0.6-1.4,1.1c0,0.6,0.5,1.6,1.4,2.8l10.2,13.8l10.1-14.3c0.9-1.2,1.3-2,1.3-2.5
	c0-0.5-0.4-0.8-1.3-1.1v-0.9h9.4v0.9c-1,0.2-1.8,0.6-2.5,1.3c-1.4,1.5-2.3,2.5-2.7,3.1L1117,269.4z"/>
</svg>
