<?xml version="1.0" encoding="utf-8"?>
<!-- Generator: Adobe Illustrator 21.0.0, SVG Export Plug-In . SVG Version: 6.00 Build 0)  -->
<svg version="1.1" xmlns="http://www.w3.org/2000/svg" xmlns:xlink="http://www.w3.org/1999/xlink" viewBox="0 0 1140.9 311.7" fill="#fff" style="enable-background:new 0 0 1140.9 311.7;" xml:space="preserve">
<path d="M119.3,272.9L109,311.7C45.6,290.4,0,230.5,0,160c0-25.6,6-49.8,16.7-71.2l34.7,20.1
	C44.1,124.4,40,141.7,40,160C40,212,73.1,256.3,119.3,272.9z M71.5,26.7c-17.7,11.8-33,27.1-44.8,44.8l34.8,20.1
	c8.2-11.7,18.4-21.9,30.1-30.1L71.5,26.7z M320,160C320,71.6,248.4,0,160,0c-25.6,0-49.8,6-71.2,16.7l20.1,34.7
	C124.4,44.1,141.7,40,160,40c66.3,0,120,53.7,120,120c0,52-33.1,96.3-79.4,112.9l10.4,38.8C274.4,290.4,320,230.5,320,160z
	 M236.6,152L236.6,152c0-0.2,0-0.4-0.1-0.6c-0.1-1-0.2-2-0.4-3c0-0.3-0.1-0.6-0.1-0.9c-0.1-0.9-0.3-1.8-0.5-2.7
	c-0.1-0.3-0.1-0.7-0.2-1c-0.2-0.9-0.4-1.7-0.6-2.6c-0.1-0.4-0.2-0.7-0.3-1.1c-0.2-0.8-0.4-1.7-0.7-2.5c-0.1-0.4-0.2-0.7-0.3-1.1
	c-0.2-0.8-0.5-1.6-0.8-2.4c-0.1-0.4-0.3-0.7-0.4-1.1c-0.3-0.8-0.6-1.5-0.9-2.3c-0.1-0.4-0.3-0.7-0.4-1.1c-0.3-0.8-0.6-1.5-1-2.2
	c-0.2-0.4-0.3-0.7-0.5-1.1c-0.3-0.7-0.7-1.5-1.1-2.2c-0.2-0.4-0.3-0.7-0.5-1.1c-0.4-0.7-0.8-1.5-1.2-2.2c-0.2-0.3-0.4-0.7-0.5-1
	c-0.4-0.7-0.9-1.5-1.3-2.2c-0.2-0.3-0.4-0.6-0.5-0.9c-0.5-0.8-1-1.6-1.6-2.4c-0.1-0.2-0.3-0.4-0.4-0.6c-0.7-1-1.4-1.9-2.1-2.9
	c-0.2-0.2-0.4-0.5-0.6-0.7c-0.5-0.7-1.1-1.4-1.6-2c-0.3-0.4-0.7-0.8-1.1-1.2c-0.4-0.5-0.8-0.9-1.2-1.4c-0.4-0.5-0.8-0.9-1.3-1.3
	c-0.4-0.4-0.8-0.8-1.1-1.2c-0.5-0.5-0.9-0.9-1.4-1.4c-0.4-0.4-0.7-0.7-1.1-1.1c-0.5-0.5-1-0.9-1.5-1.4c-0.4-0.3-0.7-0.6-1.1-1
	c-0.5-0.5-1.1-0.9-1.6-1.3c-0.4-0.3-0.7-0.6-1.1-0.9c-0.6-0.4-1.2-0.9-1.7-1.3c-0.3-0.3-0.7-0.5-1.1-0.8c-0.6-0.4-1.2-0.9-1.9-1.3
	c-0.3-0.2-0.7-0.5-1-0.7c-0.7-0.4-1.3-0.8-2-1.2c-0.3-0.2-0.6-0.4-1-0.6c-0.7-0.4-1.4-0.8-2.1-1.2c-0.3-0.2-0.6-0.3-0.9-0.5
	c-0.8-0.4-1.5-0.8-2.3-1.2c-0.2-0.1-0.5-0.2-0.7-0.4c-0.8-0.4-1.6-0.8-2.5-1.2c-0.2-0.1-0.3-0.1-0.5-0.2c-9.8-4.2-20.7-6.6-32.1-6.6
	c-44.7,0-81,36.3-81,81c0,44.7,36.3,81,81,81l0,0c14.9,0,27-12.1,27-27c0-14.9-12.1-27-27-27l0,0c-14.9,0-27-12.1-27-27
	c0-14.9,12.1-27,27-27c6.7,0,12.7,2.4,17.4,6.4c0.4,0.4,0.9,0.8,1.3,1.1c0.1,0.1,0.3,0.3,0.4,0.4c3.9,4,6.6,9.1,7.5,14.9
	c11.8,16.1,29.3,27.6,49.6,31.6c3.1-8.6,4.8-17.8,4.8-27.5C237,157.3,236.9,154.6,236.6,152z M183,164v29c0,0,0.2-9.2,0.2,0.6
	c0,12.7,19.1,47.4,49.8,47.4c16.4,0,23-16.6,23-26c0-9.4-6.9-23-21-23C220.9,192,195.4,182,183,164z M400.3,139.4v-49h-16.4h-16.2
	h-17.4v26.4h17.4v22.7v21.1v45.7c0,12.6,6.4,19,19.1,19.1h27.5V199h-9.2c-3.3,0-4.9-1.6-4.9-4.9v-33.6V139.4z M382.3,35.5h-31.1
	l5.9,27c3.1,11.7,9.7,17.6,19.7,17.6h25.8V53.7h-10c-3.6,0-5.9-1.6-6.8-4.7L382.3,35.5z M533.1,206.2V131h-16.4h-16.2h-40.2
	l5.5-14.3h74.4V91.9h-10.9l3.9-11.1h-29.5l-3.9,11.1h-9.6V73h45.3V48.2h-45.3V33.9h-32.6v14.3h-40.8V73h40.8v18.9h-46.3v24.8h20.5
	l-6.6,19.3c-2,3.9-5.9,5.9-11.9,5.9h-4.9l4.7,26.4h11.7v32.2v12.3v12.5H514C526.6,225.3,533,219,533.1,206.2z M457.3,166.9v-11.1
	h43.2v11.1H457.3z M500.5,190.2v5.5c0,3.3-1.6,4.9-4.9,4.9h-38.3v-10.4H500.5z M559.1,222.2h115.4v-20.1h-82.8v-38.5v-0.2l0.2-0.6
	h31.6l-5.5,11.1c-2.1,2.5-5.1,3.8-9.2,3.9h-11.5l4.7,17h22.3c9.8,0,17.8-3.1,24-9.4l0.6,1.2c3.9,4.8,10.4,7.3,19.3,7.4h28.1v-15.4
	h-6.1c-4,0-7-1-8.8-3.1l-2.3-4.1h-22.9l4.5-8.6h43.6v37.5c0,3.3-1.6,4.9-4.9,4.9h-15.4l4.3,20.1h29.5c12.6,0,19-6.4,19.1-19.1v-63.5
	h-16.4h-16.2H604l4.1-6.4H714c12.6,0,19-6.4,19.1-19.1V72.4h-16.4h-1.6v-7.2h25.8V41.9h-25.8v-8h-32.6v8h-75.2v-8h-32.6v8h-24.4
	v23.2h24.4v7.2h-1h-16.2v45.3v9.2v9.4h13.1l-7.4,12.3c-1.7,2.3-4.5,3.5-8.4,3.5h-6.6l4.7,24.8h6.3v25.2v10V222.2z M590.1,97.4V91
	h110.4v6.4H590.1z M700.5,111.3v1.6c0,3.3-1.6,4.9-4.9,4.9H590.1v-6.4H700.5z M682.5,65.2v7.2h-75.2v-7.2H682.5z M805.4,34.7h-35
	l7.2,23.2c0.4,1.7,0.8,3.3,1.4,4.9h-24.6v162.5H787V74c2.1,1.3,4.8,2,8.2,2.1h33.2V52.9h-13.5c-3.5,0-5.6-1.8-6.3-5.3L805.4,34.7z
	 M889.3,171.8v-69.7h-14.8h-14.6h-29.1h-14.8h-14.6v62.5v13.1V191h68.9C882.8,191,889.2,184.6,889.3,171.8z M830.7,128.5h29.1v31.3
	c0,3.3-1.6,4.9-4.9,4.9h-24.2V128.5z M936.2,36.5h-16.4h-16.2H837v26.4h66.6v131.3c0,3.3-1.6,4.9-4.9,4.9H888l4.3,26.4h24.8
	c12.6,0,19-6.4,19.1-19.1V36.5z M1044,39.6h-48.2l2.1-5.7h-32.6l-6.3,18.6c-0.9,3.9-3.1,5.9-6.6,5.9h-3.5l4.7,23.2h13.7
	c9.9,0,16.3-4.6,19.1-13.9l3.1-9.6h5.9l3.7,8.4c2.5,10.5,7.8,15.8,16,15.8h22.1h17h9.2c9.1,0,15-4.2,17.6-12.5l4.3-11.7h8.2l3.7,9.8
	c2.5,10.2,7.9,15.2,16.4,15.2h26.6v-17h-10.7c-2.9,0-4.6-1.6-5.3-4.7l-0.8-3.3h16V39.6h-47.3l2-4.9h-32.6l-7.2,24.8
	c-0.8,2.9-2.1,4.8-3.9,5.9c-0.5,0-1.1,0-1.8,0h-16c-2.9,0-4.6-1.6-5.3-4.9l-0.6-2.3h17.4V39.6z M1112.6,88.8H975.7L964,121
	c-0.9,2.9-2.8,4.4-5.7,4.5h-8.8v23.2h26.6c3.5,0,6.7-1,9.6-3.1h123c2.7,2.1,6,3.1,9.8,3.1h22.5v-23.2h-4.7c-2.3,0-3.8-0.8-4.5-2.5
	L1112.6,88.8z M1099.7,156.8H990.9h-16.4h-16.2v43.8v12.3v12.5h154.9c12.6,0,19-6.4,19.1-19.1v-49.4h-16.4H1099.7z M1099.7,181.6
	v14.1c0,3.3-1.6,4.9-4.9,4.9H990.9v-18.9H1099.7z M1089.3,112.1l6.3,11.9h-99l4.3-11.9H1089.3z M358.5,256.9v3.8h27.3l-27.3,26.2
	h38.6V283h-27.3l27.3-26.1H358.5z M410.4,256.9h-6.3v30h6.3V256.9z M440.6,256.9h-6.4V270h-20.8l2,3.8h18.8v13h6.4V256.9z
	 M486.3,256.9h-6.4v22.3c0,0.8-0.8,1.7-2.5,2.6c-1.5,0.8-2.8,1.2-3.7,1.2h-11.1c-1,0-2.2-0.4-3.7-1.2c-1.7-0.9-2.5-1.7-2.5-2.6
	v-22.4h-6.4v22.5c0,1.8,1.5,3.5,4.6,5.2c2.7,1.5,5.1,2.2,7.1,2.2h13c1.8,0,4.2-0.7,7-2.1c3.1-1.6,4.7-3.2,4.7-4.8V256.9z M531.8,270
	h-27.2l2,3.8h18.8v9.2H508c-1,0-2.2-0.4-3.8-1.2c-1.7-0.9-2.6-1.7-2.6-2.6v-14.8c0-0.9,0.9-1.7,2.6-2.6c1.5-0.8,2.8-1.2,3.8-1.2
	h23.8v-3.8h-24.1c-2,0-4.5,0.7-7.4,2c-3.3,1.6-5,3.2-5,5v16c0,1.6,1.6,3.2,4.8,4.8c2.8,1.4,5.1,2.2,7,2.2h24.8V270z M575.8,283H552
	c-1,0-2.2-0.4-3.8-1.2c-1.7-0.9-2.6-1.7-2.6-2.6v-14.8c0-0.9,0.9-1.7,2.6-2.6c1.5-0.8,2.8-1.2,3.8-1.2h23.8v-3.8h-24.1
	c-2,0-4.5,0.7-7.4,2c-3.3,1.6-5,3.2-5,5v16c0,1.6,1.6,3.2,4.8,4.8c2.8,1.4,5.1,2.2,7,2.2h24.8V283z M575.8,270h-27.2
	c0.9,1.6,1.5,2.9,2,3.8h25.2V270z M624.8,283h-4.8v-22.3h4.8v-3.8h-15.9v3.8h4.8V283h-4.8v3.8h15.9V283z M669.9,263.8
	c0-1.7-1.7-3.4-5-5c-2.9-1.3-5.3-2-7.3-2h-24.1v3.8h23.1c1.2,0,2.5,0.3,4.1,1c1.9,0.8,2.8,1.7,2.8,2.8v22.4h6.4V263.8z M639.4,262.4
	l-6,1.2v23.2h6V262.4z M715.5,256.9H679v3.8h36.5V256.9z M700.1,262.5c-2.6,0.5-4.6,0.9-6,1.2v23.2h6V262.5z M758.4,283h-23.8
	c-1,0-2.2-0.4-3.8-1.2c-1.7-0.9-2.5-1.7-2.5-2.6v-14.8c0-0.9,0.8-1.7,2.5-2.6c1.5-0.8,2.8-1.2,3.8-1.2h23.8v-3.8h-24.1
	c-2,0-4.5,0.7-7.4,2c-3.3,1.6-5,3.2-5,5v16c0,1.6,1.6,3.2,4.8,4.8c2.8,1.4,5.1,2.2,7,2.2h24.8V283z M758.4,270h-27.2
	c0.9,1.6,1.5,2.9,2,3.8h25.2V270z M800.7,276.9c0-0.6-0.6-1.5-1.8-2.7c-0.1,0-1-0.8-2.9-2.5c3.2-2.1,4.8-4.3,4.8-6.3
	c0-2.5-1.5-4.6-4.5-6.3c-2.6-1.5-5.2-2.2-7.9-2.2h-24.1v30h6.4v-26.2H788c1.6,0.2,3,0.6,4.1,1.3c1.5,0.9,2.2,2,2.2,3.4
	c0,1.3-0.8,2.4-2.3,3.3c-1.2,0.7-2.5,1.1-4,1.3h-14.5l2,3.8H788c1,0,2.2,0.4,3.7,1.2c1.7,0.9,2.5,1.7,2.5,2.5v9.3h6.4V276.9z
	 M846.2,283h-23.8c-1,0-2.2-0.4-3.8-1.2c-1.7-0.9-2.5-1.7-2.5-2.6v-22.4h-6.4v22.5c0,1.8,1.6,3.5,4.7,5.2c2.7,1.5,5.1,2.2,7.1,2.2
	h24.8V283z M886.7,263.9c0-1.7-1.7-3.4-5-4.9c-2.9-1.4-5.4-2-7.4-2h-11.8c-2,0-4.5,0.7-7.4,2c-3.3,1.6-5,3.2-5,4.9v15.9
	c0,1.6,1.6,3.2,4.8,4.8c2.8,1.5,5.2,2.2,7,2.2H875c1.9,0,4.2-0.7,7-2.1c3.2-1.6,4.8-3.2,4.8-4.8V263.9z M877.8,281.8
	c-1.6,0.8-2.8,1.2-3.8,1.2h-11.2c-1,0-2.3-0.4-3.8-1.2c-1.7-0.9-2.5-1.7-2.5-2.6v-14.8c0-1,1-1.9,2.8-2.7c1.6-0.7,3-1.1,4.1-1.1h9.8
	c1.1,0,2.4,0.4,4.1,1.1c1.9,0.8,2.8,1.7,2.8,2.6v14.9C880.3,280.1,879.5,280.9,877.8,281.8z M932.1,283h-23.8c-1,0-2.2-0.4-3.8-1.2
	c-1.7-0.9-2.5-1.7-2.5-2.6v-14.8c0-0.9,0.8-1.7,2.5-2.6c1.5-0.8,2.8-1.2,3.8-1.2h23.8v-3.8H908c-2,0-4.5,0.7-7.4,2
	c-3.3,1.6-5,3.2-5,5v16c0,1.6,1.6,3.2,4.8,4.8c2.8,1.4,5.1,2.2,7,2.2h24.8V283z M973.6,256.9h-6.4v22.3c0,0.8-0.8,1.7-2.5,2.6
	c-1.5,0.8-2.8,1.2-3.7,1.2h-11.1c-1,0-2.2-0.4-3.7-1.2c-1.7-0.9-2.5-1.7-2.5-2.6v-22.4h-6.4v22.5c0,1.8,1.5,3.5,4.6,5.2
	c2.7,1.5,5.1,2.2,7.1,2.2h13c1.8,0,4.2-0.7,7-2.1c3.1-1.6,4.7-3.2,4.7-4.8V256.9z M1019.1,256.9h-36.5v3.8h36.5V256.9z
	 M1003.7,262.5c-2.6,0.5-4.6,0.9-6,1.2v23.2h6V262.5z M1041.5,283h-4.8v-22.3h4.8v-3.8h-15.9v3.8h4.8V283h-4.8v3.8h15.9V283z
	 M1086.6,263.9c0-1.7-1.7-3.4-5-4.9c-2.9-1.4-5.4-2-7.4-2h-11.8c-2,0-4.5,0.7-7.4,2c-3.3,1.6-5,3.2-5,4.9v15.9
	c0,1.6,1.6,3.2,4.8,4.8c2.8,1.5,5.2,2.2,7,2.2h13.1c1.9,0,4.2-0.7,7-2.1c3.2-1.6,4.8-3.2,4.8-4.8V263.9z M1077.6,281.8
	c-1.6,0.8-2.8,1.2-3.8,1.2h-11.2c-1,0-2.3-0.4-3.8-1.2c-1.7-0.9-2.5-1.7-2.5-2.6v-14.8c0-1,1-1.9,2.8-2.7c1.6-0.7,3-1.1,4.1-1.1h9.8
	c1.1,0,2.4,0.4,4.1,1.1c1.9,0.8,2.8,1.7,2.8,2.6v14.9C1080.2,280.1,1079.3,280.9,1077.6,281.8z M1132,263.8c0-1.7-1.7-3.4-5-5
	c-2.9-1.3-5.3-2-7.3-2h-24.1v3.8h23.1c1.2,0,2.5,0.3,4.1,1c1.9,0.8,2.8,1.7,2.8,2.8v22.4h6.4V263.8z M1101.5,262.4l-6,1.2v23.2h6
	V262.4z"/>
</svg>
